<svg xmlns="http://www.w3.org/2000/svg" viewBox="0 0 100 100" role="img" aria-label="HugoKit">
  <path d="M50 4L91.43 27L50 50L8.57 27Z" fill="#F2F0F4"/>
  <path d="M8.57 27L50 50L50 96L8.57 73Z" fill="#26262B"/>
  <path d="M21.39 44.77L25.65 47.14L25.65 55.89L32.92 59.93L32.92 51.17L37.18 53.54L37.18 75.93L32.92 73.56L32.92 64.18L25.65 60.15L25.65 69.53L21.39 67.16Z" fill="#F2F0F4"/>
  <path d="M50 50L70.72 38.5L70.72 61.5L50 73Z" fill="#FF4088"/>
  <path d="M70.72 38.5L91.43 27L91.43 50L70.72 61.5Z" fill="#0594CB"/>
  <path d="M50 73L70.72 61.5L70.72 84.5L50 96Z" fill="#33BA91"/>
  <path d="M70.72 61.5L91.43 50L91.43 73L70.72 84.5Z" fill="#EBB951"/>
</svg>
